<?xml version="1.0" standalone="no"?>
<!DOCTYPE svg PUBLIC "-//W3C//DTD SVG 20010904//EN"
 "http://www.w3.org/TR/2001/REC-SVG-20010904/DTD/svg10.dtd">
<svg version="1.0" xmlns="http://www.w3.org/2000/svg"
 width="32.000000pt" height="32.000000pt" viewBox="0 0 24.000000 24.000000"
 preserveAspectRatio="xMidYMid meet">

<g transform="translate(0.000000,24.000000) scale(0.100000,-0.100000)"
fill="#000000" stroke="none">
<path d="M59 211 c-45 -46 -35 -108 30 -181 l31 -35 31 35 c37 41 59 89 59
125 0 38 -50 85 -90 85 -22 0 -41 -9 -61 -29z m95 -27 c31 -30 9 -84 -34 -84
-24 0 -50 26 -50 50 0 24 26 50 50 50 10 0 26 -7 34 -16z"/>
</g>
</svg>
