<?xml version="1.0" standalone="no"?>
<!DOCTYPE svg PUBLIC "-//W3C//DTD SVG 20010904//EN"
 "http://www.w3.org/TR/2001/REC-SVG-20010904/DTD/svg10.dtd">
<svg version="1.0" xmlns="http://www.w3.org/2000/svg"
 width="32.000000pt" height="32.000000pt" viewBox="0 0 32.000000 32.000000"
 preserveAspectRatio="xMidYMid meet">

<g transform="translate(0.000000,32.000000) scale(0.100000,-0.100000)"
fill="#000000" stroke="none">
<path d="M83 258 c5 -18 229 -18 235 0 3 9 -25 12 -118 12 -93 0 -121 -3 -117
-12z"/>
<path d="M5 169 c-15 -24 17 -29 161 -27 125 3 149 5 149 18 0 13 -25 15 -152
18 -103 2 -154 -1 -158 -9z"/>
<path d="M147 74 c-16 -17 10 -24 89 -24 64 0 85 3 82 13 -5 13 -158 23 -171
11z"/>
</g>
</svg>
