<?xml version="1.0" standalone="no"?>
<!DOCTYPE svg PUBLIC "-//W3C//DTD SVG 20010904//EN"
 "http://www.w3.org/TR/2001/REC-SVG-20010904/DTD/svg10.dtd">
<svg version="1.0" xmlns="http://www.w3.org/2000/svg"
 width="32.000000pt" height="32.000000pt" viewBox="0 0 32.000000 32.000000"
 preserveAspectRatio="xMidYMid meet">

<g transform="translate(0.000000,32.000000) scale(0.100000,-0.100000)"
fill="#000000" stroke="none">
<path d="M82 300 c-12 -12 -22 -26 -22 -31 0 -6 -13 -24 -30 -39 -35 -33 -38
-57 -9 -94 20 -26 23 -26 143 -26 106 0 125 2 139 18 24 26 21 57 -8 80 -14
11 -25 24 -25 29 0 15 -35 43 -54 43 -9 0 -26 9 -38 20 -28 26 -68 26 -96 0z
m91 -22 c12 -13 26 -22 31 -20 17 6 46 -10 46 -26 0 -9 12 -26 28 -38 22 -19
25 -26 16 -41 -10 -15 -28 -18 -127 -21 -95 -2 -118 0 -131 13 -24 25 -19 52
14 77 17 12 30 30 30 39 0 40 59 50 93 17z"/>
<path d="M15 69 c-4 -11 -4 -23 0 -27 7 -7 25 17 25 36 0 20 -18 14 -25 -9z"/>
<path d="M105 69 c-4 -11 -4 -23 0 -27 7 -7 25 17 25 36 0 20 -18 14 -25 -9z"/>
<path d="M195 69 c-4 -11 -4 -23 0 -27 7 -7 25 17 25 36 0 20 -18 14 -25 -9z"/>
<path d="M285 69 c-4 -11 -4 -23 0 -27 7 -7 25 17 25 36 0 20 -18 14 -25 -9z"/>
<path d="M51 42 c-7 -13 -11 -28 -8 -35 2 -7 9 -2 16 11 7 13 11 28 8 35 -2 7
-9 2 -16 -11z"/>
<path d="M141 42 c-7 -13 -11 -28 -8 -35 2 -7 9 -2 16 11 7 13 11 28 8 35 -2
7 -9 2 -16 -11z"/>
<path d="M231 42 c-7 -13 -11 -28 -8 -35 2 -7 9 -2 16 11 7 13 11 28 8 35 -2
7 -9 2 -16 -11z"/>
</g>
</svg>
