<?xml version="1.0" standalone="no"?>
<!DOCTYPE svg PUBLIC "-//W3C//DTD SVG 20010904//EN"
 "http://www.w3.org/TR/2001/REC-SVG-20010904/DTD/svg10.dtd">
<svg version="1.0" xmlns="http://www.w3.org/2000/svg"
 width="32.000000pt" height="32.000000pt" viewBox="0 0 512.000000 512.000000"
 preserveAspectRatio="xMidYMid meet">

<g transform="translate(0.000000,512.000000) scale(0.100000,-0.100000)"
fill="#000000" stroke="none">
<path d="M373 5105 c-179 -48 -311 -183 -358 -362 -23 -86 -23 -4280 0 -4366
47 -182 180 -315 362 -362 86 -23 4280 -23 4366 0 182 47 315 180 362 362 23
86 23 4280 0 4366 -47 182 -180 315 -362 362 -84 22 -4289 21 -4370 0z m2087
-1315 l0 -1130 -1130 0 -1130 0 2 1018 3 1017 23 50 c39 86 109 143 199 164
21 5 487 9 1036 10 l997 1 0 -1130z m2286 1102 c63 -29 116 -82 146 -147 l23
-50 3 -1017 2 -1018 -1130 0 -1130 0 0 1130 0 1130 1018 -2 1017 -3 51 -23z
m-2286 -3562 l0 -1130 -1022 2 -1023 3 -47 23 c-25 13 -65 43 -88 68 -81 88
-75 -4 -78 1142 l-2 1022 1130 0 1130 0 0 -1130z m2458 113 l-3 -1018 -23 -50
c-30 -65 -83 -118 -146 -147 l-51 -23 -1017 -3 -1018 -2 0 1130 0 1130 1130 0
1130 0 -2 -1017z"/>
<path d="M1270 4476 c-205 -53 -364 -196 -426 -385 l-21 -64 -59 -21 c-238
-86 -366 -348 -288 -589 50 -154 180 -275 335 -312 97 -22 954 -22 1043 1 293
75 441 410 299 678 -15 28 -59 82 -96 120 -61 60 -71 76 -83 126 -38 164 -158
320 -303 395 -112 57 -287 80 -401 51z m201 -196 c75 -14 136 -46 195 -102 63
-60 102 -135 115 -224 15 -102 24 -118 89 -158 167 -103 183 -321 33 -445 -71
-59 -91 -61 -573 -61 -492 0 -505 1 -582 70 -105 92 -122 260 -38 367 46 59
111 92 211 108 56 8 84 44 97 119 27 164 150 295 305 325 60 12 87 12 148 1z"/>
<path d="M3719 4569 c-27 -29 -28 -35 -31 -136 l-3 -105 -60 -19 c-33 -10 -78
-30 -100 -43 l-40 -24 -77 74 c-72 69 -81 74 -121 74 -59 0 -97 -38 -97 -98 0
-39 6 -49 74 -120 l74 -77 -24 -40 c-13 -22 -33 -67 -43 -100 l-19 -60 -103
-5 c-139 -7 -169 -26 -169 -105 0 -28 7 -44 31 -66 29 -27 35 -28 136 -31
l105 -3 19 -60 c10 -33 30 -78 43 -100 l24 -40 -74 -77 c-69 -72 -74 -81 -74
-122 0 -61 35 -96 96 -96 41 0 50 5 122 74 l77 74 40 -24 c22 -13 67 -33 100
-43 l60 -19 3 -105 c3 -101 4 -107 31 -136 22 -24 38 -31 66 -31 79 0 98 30
105 169 l5 103 60 19 c33 10 78 30 100 43 l40 24 77 -74 c72 -69 81 -74 121
-74 59 0 97 38 97 98 0 39 -6 49 -74 120 l-74 77 24 40 c13 22 33 67 43 100
l19 60 105 3 c101 3 107 4 136 31 51 48 38 127 -26 160 -12 6 -66 11 -121 11
l-99 0 -7 38 c-3 20 -21 66 -39 102 l-33 65 73 77 c66 71 73 82 73 119 0 57
-42 99 -99 99 -37 0 -48 -7 -119 -73 l-77 -73 -65 33 c-36 18 -82 36 -102 39
l-38 7 0 99 c0 134 -25 177 -103 178 -31 0 -45 -7 -68 -31z"/>
<path d="M1049 2072 c-24 -22 -31 -36 -31 -65 0 -46 7 -56 121 -182 l91 -100
0 -147 0 -148 -147 0 -148 0 -105 96 c-108 98 -155 128 -187 118 -61 -20 -83
-48 -83 -107 0 -27 13 -45 91 -119 l92 -87 -92 -88 c-83 -80 -91 -91 -91 -125
0 -44 37 -93 77 -101 44 -8 80 14 193 117 l105 96 148 0 147 0 0 -147 0 -148
-91 -100 c-114 -125 -121 -136 -121 -182 0 -50 46 -93 100 -93 34 0 45 8 125
91 l88 92 87 -92 c79 -83 90 -91 124 -91 54 0 100 43 100 93 0 46 -7 57 -121
182 l-91 100 0 148 0 147 148 0 147 0 105 -96 c113 -103 150 -125 193 -117 40
8 77 57 77 101 0 34 -8 45 -91 125 l-92 88 92 87 c78 74 91 92 91 119 0 48
-19 80 -57 98 -51 24 -83 8 -208 -105 l-110 -100 -147 0 -148 0 0 148 0 147
100 110 c113 125 129 157 105 208 -18 38 -50 57 -98 57 -27 0 -45 -13 -119
-91 l-88 -92 -87 92 c-80 83 -91 91 -125 91 -27 0 -47 -8 -69 -28z"/>
<path d="M1014 1688 c-50 -24 -63 -111 -23 -154 49 -53 137 -36 159 31 29 88
-54 163 -136 123z"/>
<path d="M1528 1685 c-36 -20 -53 -74 -38 -120 32 -97 180 -74 183 29 2 84
-71 131 -145 91z"/>
<path d="M1014 1138 c-30 -14 -48 -52 -47 -96 1 -27 9 -43 32 -64 77 -69 184
7 151 107 -18 55 -82 80 -136 53z"/>
<path d="M1528 1135 c-59 -32 -58 -139 2 -170 43 -22 76 -18 111 13 23 21 31
37 32 64 2 86 -70 133 -145 93z"/>
<path d="M3738 2005 c-21 -12 -53 -66 -131 -223 -120 -238 -175 -364 -222
-507 -42 -128 -49 -175 -36 -254 40 -246 271 -414 513 -373 197 34 343 187
370 386 8 65 7 86 -12 158 -33 130 -113 322 -237 570 -92 186 -118 230 -142
243 -37 19 -68 19 -103 0z m132 -472 c179 -389 198 -499 102 -605 -53 -59
-104 -82 -182 -82 -138 0 -240 101 -240 239 0 65 47 202 144 411 87 192 88
194 96 194 4 0 40 -71 80 -157z"/>
<path d="M4613 1875 c-12 -9 -27 -32 -32 -52 -24 -87 54 -155 133 -118 60 29
72 111 24 162 -26 27 -91 32 -125 8z"/>
<path d="M4642 1598 c-21 -6 -40 -20 -52 -41 -19 -30 -20 -52 -20 -360 0 -222
4 -335 11 -350 32 -63 111 -77 160 -28 l29 29 0 345 0 345 -25 30 c-28 34 -56
42 -103 30z"/>
</g>
</svg>
